<svg width="112" height="113" viewBox="0 0 112 113" fill="none" xmlns="http://www.w3.org/2000/svg">
<path d="M65.3333 9.83334H28C25.5246 9.83334 23.1506 10.8167 21.4003 12.567C19.65 14.3174 18.6666 16.6913 18.6666 19.1667V93.8333C18.6666 96.3087 19.65 98.6827 21.4003 100.433C23.1506 102.183 25.5246 103.167 28 103.167H84C86.4753 103.167 88.8493 102.183 90.5996 100.433C92.35 98.6827 93.3333 96.3087 93.3333 93.8333V37.8333L65.3333 9.83334Z" stroke="#23A6DF" stroke-width="3" stroke-linecap="round" stroke-linejoin="round"/>
<path d="M65.3334 9.83334V37.8333H93.3334" stroke="#23A6DF" stroke-width="3" stroke-linecap="round" stroke-linejoin="round"/>
<path d="M74.6667 61.1667H37.3334" stroke="#23A6DF" stroke-width="3" stroke-linecap="round" stroke-linejoin="round"/>
<path d="M74.6667 79.8333H37.3334" stroke="#23A6DF" stroke-width="3" stroke-linecap="round" stroke-linejoin="round"/>
<path d="M46.6667 42.5H42H37.3334" stroke="#23A6DF" stroke-width="3" stroke-linecap="round" stroke-linejoin="round"/>
</svg>
